<svg width="20" height="20" viewBox="0 0 20 20" fill="none" xmlns="http://www.w3.org/2000/svg">
<path d="M5.83334 10C7.21405 10 8.33334 8.88071 8.33334 7.5C8.33334 6.11929 7.21405 5 5.83334 5C4.45262 5 3.33334 6.11929 3.33334 7.5C3.33334 8.88071 4.45262 10 5.83334 10Z" stroke="#394867" stroke-width="1.5"/>
<path d="M6.66667 11.6667C6.66667 11.6667 6.25 11.6667 5 11.6667C3.75 11.6667 0.833336 12.5 0.833336 14.5833C0.833336 16.1942 0.833336 17.5 4.16668 17.5C6.66667 17.5 7.5 17.5 7.5 17.5" stroke="#394867" stroke-width="1.5" stroke-linecap="round"/>
<path d="M13.75 9.16668C15.3608 9.16668 16.6667 7.86084 16.6667 6.25001C16.6667 4.63918 15.3608 3.33334 13.75 3.33334C12.1392 3.33334 10.8333 4.63918 10.8333 6.25001C10.8333 7.86084 12.1392 9.16668 13.75 9.16668Z" stroke="#394867" stroke-width="1.5"/>
<path d="M19.165 14.537C19.1667 14.4154 19.1667 14.2919 19.1667 14.1667C19.1667 12.3257 16.7416 10.8333 13.75 10.8333C10.7585 10.8333 8.33333 12.3257 8.33333 14.1667C8.33333 16.0076 8.33333 17.5 13.75 17.5C15.2606 17.5 16.3499 17.3839 17.1354 17.1766" stroke="#394867" stroke-width="1.5" stroke-linecap="round"/>
</svg>
